<svg width="50" height="52" viewBox="0 0 50 52" fill="none" xmlns="http://www.w3.org/2000/svg">
<path d="M22.7787 1.68515C23.1369 -0.561693 26.3706 -0.561704 26.7288 1.68514L28.3333 11.7496C29.2275 17.3589 33.66 21.7382 39.2797 22.5647L47.7984 23.8174C50.0771 24.1525 50.0771 27.4398 47.7984 27.7749L39.2797 29.0276C33.66 29.854 29.2275 34.2333 28.3333 39.8427L26.7288 49.9071C26.3706 52.154 23.1369 52.154 22.7787 49.9071L21.1742 39.8427C20.2799 34.2333 15.8474 29.854 10.2277 29.0276L1.709 27.7749C-0.569684 27.4398 -0.569685 24.1525 1.709 23.8174L10.2277 22.5647C15.8474 21.7382 20.2799 17.3589 21.1742 11.7496L22.7787 1.68515Z" fill="#E48921" style="fill:#E48921;fill:color(display-p3 0.8941 0.5373 0.1294);fill-opacity:1;"/>
<path d="M22.7787 1.68515C23.1369 -0.561693 26.3706 -0.561704 26.7288 1.68514L28.3333 11.7496C29.2275 17.3589 33.66 21.7382 39.2797 22.5647L47.7984 23.8174C50.0771 24.1525 50.0771 27.4398 47.7984 27.7749L39.2797 29.0276C33.66 29.854 29.2275 34.2333 28.3333 39.8427L26.7288 49.9071C26.3706 52.154 23.1369 52.154 22.7787 49.9071L21.1742 39.8427C20.2799 34.2333 15.8474 29.854 10.2277 29.0276L1.709 27.7749C-0.569684 27.4398 -0.569685 24.1525 1.709 23.8174L10.2277 22.5647C15.8474 21.7382 20.2799 17.3589 21.1742 11.7496L22.7787 1.68515Z" fill="url(#paint0_linear_361_71)" fill-opacity="0.2"/>
<defs>
<linearGradient id="paint0_linear_361_71" x1="-7.26382" y1="-7.5021" x2="61.2537" y2="62.2961" gradientUnits="userSpaceOnUse">
<stop stop-color="white" style="stop-color:white;stop-opacity:1;"/>
<stop offset="1" stop-color="#E48921" stop-opacity="0" style="stop-color:none;stop-opacity:0;"/>
</linearGradient>
</defs>
</svg>
