<svg width="57" height="57" viewBox="0 0 57 57" fill="none" xmlns="http://www.w3.org/2000/svg">
<path fill-rule="evenodd" clip-rule="evenodd" d="M43.7442 57H13.2558L13.0844 56.999C5.89947 56.9079 0.0920784 51.1005 0.00103561 43.9156L0 43.7442V13.2558C0 5.93483 5.93483 2.02831e-07 13.2558 0H43.7442C51.0652 0 57 5.93483 57 13.2558V43.7442C57 51.008 51.1576 56.9072 43.9156 56.999L43.7442 57ZM35.2328 23.3565L34.7302 34.664C34.7302 38.5551 33.0866 42.3523 30.0378 45.4012L21.8589 53.0233H43.7442C48.8689 53.0233 53.0233 48.8689 53.0233 43.7442V13.2558C53.0233 11.8162 52.6954 10.4532 52.1103 9.23731L51.9483 9.29155C48.6316 10.402 45.293 11.5198 42.2273 12.9949C37.9567 15.0497 35.4274 19.0405 35.2328 23.3565ZM23.8296 26.3571L24.4449 20.0041C24.9248 15.0488 28.4807 10.7488 33.6553 8.86631L47.4322 4.73855C46.3018 4.24843 45.0547 3.97674 43.7442 3.97674H13.2558C8.13113 3.97674 3.97674 8.13113 3.97674 13.2558V39.8282L12.2757 38.1528C18.6013 36.8758 23.2728 32.1066 23.8296 26.3571Z" fill="#E48921" style="fill:#E48921;fill:color(display-p3 0.8941 0.5373 0.1294);fill-opacity:1;"/>
<path fill-rule="evenodd" clip-rule="evenodd" d="M43.7442 57H13.2558L13.0844 56.999C5.89947 56.9079 0.0920784 51.1005 0.00103561 43.9156L0 43.7442V13.2558C0 5.93483 5.93483 2.02831e-07 13.2558 0H43.7442C51.0652 0 57 5.93483 57 13.2558V43.7442C57 51.008 51.1576 56.9072 43.9156 56.999L43.7442 57ZM35.2328 23.3565L34.7302 34.664C34.7302 38.5551 33.0866 42.3523 30.0378 45.4012L21.8589 53.0233H43.7442C48.8689 53.0233 53.0233 48.8689 53.0233 43.7442V13.2558C53.0233 11.8162 52.6954 10.4532 52.1103 9.23731L51.9483 9.29155C48.6316 10.402 45.293 11.5198 42.2273 12.9949C37.9567 15.0497 35.4274 19.0405 35.2328 23.3565ZM23.8296 26.3571L24.4449 20.0041C24.9248 15.0488 28.4807 10.7488 33.6553 8.86631L47.4322 4.73855C46.3018 4.24843 45.0547 3.97674 43.7442 3.97674H13.2558C8.13113 3.97674 3.97674 8.13113 3.97674 13.2558V39.8282L12.2757 38.1528C18.6013 36.8758 23.2728 32.1066 23.8296 26.3571Z" fill="url(#paint0_linear_361_46)" fill-opacity="0.2"/>
<defs>
<linearGradient id="paint0_linear_361_46" x1="3.5" y1="2.5" x2="57" y2="57" gradientUnits="userSpaceOnUse">
<stop stop-color="white" style="stop-color:white;stop-opacity:1;"/>
<stop offset="1" stop-color="#E48921" stop-opacity="0" style="stop-color:none;stop-opacity:0;"/>
</linearGradient>
</defs>
</svg>
