<svg width="91" height="91" viewBox="0 0 91 91" fill="none" xmlns="http://www.w3.org/2000/svg">
<g filter="url(#filter0_ddi_364_6)">
<path fill-rule="evenodd" clip-rule="evenodd" d="M68.5674 88.8H22.0325L21.7709 88.7984C10.8044 88.6594 1.94053 79.7955 1.80157 68.829L1.79999 68.5674V22.0325C1.79999 10.8584 10.8584 1.79999 22.0325 1.79999H68.5674C79.7416 1.79999 88.8 10.8584 88.8 22.0325V68.5674C88.8 79.6542 79.8826 88.6583 68.829 88.7984L68.5674 88.8ZM55.5764 37.4494L54.8093 54.7081C54.8093 60.6473 52.3006 66.443 47.6471 71.0965L35.1636 82.7302H68.5674C76.3893 82.7302 82.7302 76.3893 82.7302 68.5674V22.0325C82.7302 19.8353 82.2298 17.7549 81.3368 15.899L81.0896 15.9818C76.0271 17.6767 70.9314 19.3828 66.2522 21.6343C59.7339 24.7707 55.8733 30.8618 55.5764 37.4494ZM38.1715 42.0293L39.1106 32.3326C39.8431 24.7692 45.2705 18.2061 53.1685 15.3328L74.1965 9.03251C72.4711 8.28443 70.5677 7.86976 68.5674 7.86976H22.0325C14.2107 7.86976 7.86976 14.2107 7.86976 22.0325V62.5904L20.5366 60.0332C30.1914 58.0841 37.3216 50.8047 38.1715 42.0293Z" fill="#171717" style="fill:#171717;fill:color(display-p3 0.0917 0.0917 0.0883);fill-opacity:1;"/>
</g>
<defs>
<filter id="filter0_ddi_364_6" x="-1.21593e-05" y="-1.21593e-05" width="90.6" height="90.6" filterUnits="userSpaceOnUse" color-interpolation-filters="sRGB">
<feFlood flood-opacity="0" result="BackgroundImageFix"/>
<feColorMatrix in="SourceAlpha" type="matrix" values="0 0 0 0 0 0 0 0 0 0 0 0 0 0 0 0 0 0 127 0" result="hardAlpha"/>
<feOffset dx="0.5" dy="0.5"/>
<feGaussianBlur stdDeviation="0.65"/>
<feComposite in2="hardAlpha" operator="out"/>
<feColorMatrix type="matrix" values="0 0 0 0 0.952941 0 0 0 0 0.952941 0 0 0 0 0.94902 0 0 0 0.1 0"/>
<feBlend mode="normal" in2="BackgroundImageFix" result="effect1_dropShadow_364_6"/>
<feColorMatrix in="SourceAlpha" type="matrix" values="0 0 0 0 0 0 0 0 0 0 0 0 0 0 0 0 0 0 127 0" result="hardAlpha"/>
<feOffset dx="-0.5" dy="-0.5"/>
<feGaussianBlur stdDeviation="0.65"/>
<feComposite in2="hardAlpha" operator="out"/>
<feColorMatrix type="matrix" values="0 0 0 0 0 0 0 0 0 0 0 0 0 0 0 0 0 0 0.1 0"/>
<feBlend mode="normal" in2="effect1_dropShadow_364_6" result="effect2_dropShadow_364_6"/>
<feBlend mode="normal" in="SourceGraphic" in2="effect2_dropShadow_364_6" result="shape"/>
<feColorMatrix in="SourceAlpha" type="matrix" values="0 0 0 0 0 0 0 0 0 0 0 0 0 0 0 0 0 0 127 0" result="hardAlpha"/>
<feOffset dx="1" dy="1"/>
<feGaussianBlur stdDeviation="1"/>
<feComposite in2="hardAlpha" operator="arithmetic" k2="-1" k3="1"/>
<feColorMatrix type="matrix" values="0 0 0 0 0 0 0 0 0 0 0 0 0 0 0 0 0 0 0.2 0"/>
<feBlend mode="normal" in2="shape" result="effect3_innerShadow_364_6"/>
</filter>
</defs>
</svg>
