<svg width="69" height="69" viewBox="0 0 69 69" fill="none" xmlns="http://www.w3.org/2000/svg">
<rect width="69" height="69" rx="16" fill="#2A2A28" style="fill:#2A2A28;fill:color(display-p3 0.1647 0.1647 0.1569);fill-opacity:1;"/>
<rect width="69" height="69" rx="16" fill="url(#paint0_linear_329_3648)" fill-opacity="0.05"/>
<rect x="0.5" y="0.5" width="68" height="68" rx="15.5" stroke="url(#paint1_linear_329_3648)" stroke-opacity="0.1"/>
<g filter="url(#filter0_d_329_3648)">
<path fill-rule="evenodd" clip-rule="evenodd" d="M49.7442 63H19.2558L19.0844 62.999C11.8995 62.9079 6.09208 57.1005 6.00104 49.9156L6 49.7442V19.2558C6 11.9348 11.9348 6 19.2558 6H49.7442C57.0652 6 63 11.9348 63 19.2558V49.7442C63 57.008 57.1576 62.9072 49.9156 62.999L49.7442 63ZM41.2328 29.3565L40.7302 40.664C40.7302 44.5551 39.0866 48.3523 36.0378 51.4012L27.8589 59.0233H49.7442C54.8689 59.0233 59.0233 54.8689 59.0233 49.7442V19.2558C59.0233 17.8162 58.6954 16.4532 58.1103 15.2373L57.9483 15.2916C54.6316 16.402 51.293 17.5198 48.2273 18.9949C43.9567 21.0497 41.4274 25.0405 41.2328 29.3565ZM29.8296 32.3571L30.4449 26.0041C30.9248 21.0488 34.4807 16.7488 39.6552 14.8663L53.4322 10.7386C52.3018 10.2484 51.0547 9.97674 49.7442 9.97674H19.2558C14.1311 9.97674 9.97674 14.1311 9.97674 19.2558V45.8282L18.2757 44.1528C24.6013 42.8758 29.2728 38.1066 29.8296 32.3571Z" fill="#E48921" style="fill:#E48921;fill:color(display-p3 0.8941 0.5373 0.1294);fill-opacity:1;"/>
<path fill-rule="evenodd" clip-rule="evenodd" d="M49.7442 63H19.2558L19.0844 62.999C11.8995 62.9079 6.09208 57.1005 6.00104 49.9156L6 49.7442V19.2558C6 11.9348 11.9348 6 19.2558 6H49.7442C57.0652 6 63 11.9348 63 19.2558V49.7442C63 57.008 57.1576 62.9072 49.9156 62.999L49.7442 63ZM41.2328 29.3565L40.7302 40.664C40.7302 44.5551 39.0866 48.3523 36.0378 51.4012L27.8589 59.0233H49.7442C54.8689 59.0233 59.0233 54.8689 59.0233 49.7442V19.2558C59.0233 17.8162 58.6954 16.4532 58.1103 15.2373L57.9483 15.2916C54.6316 16.402 51.293 17.5198 48.2273 18.9949C43.9567 21.0497 41.4274 25.0405 41.2328 29.3565ZM29.8296 32.3571L30.4449 26.0041C30.9248 21.0488 34.4807 16.7488 39.6552 14.8663L53.4322 10.7386C52.3018 10.2484 51.0547 9.97674 49.7442 9.97674H19.2558C14.1311 9.97674 9.97674 14.1311 9.97674 19.2558V45.8282L18.2757 44.1528C24.6013 42.8758 29.2728 38.1066 29.8296 32.3571Z" fill="url(#paint2_linear_329_3648)" fill-opacity="0.2"/>
</g>
<defs>
<filter id="filter0_d_329_3648" x="4.4" y="5.4" width="62.2" height="62.2" filterUnits="userSpaceOnUse" color-interpolation-filters="sRGB">
<feFlood flood-opacity="0" result="BackgroundImageFix"/>
<feColorMatrix in="SourceAlpha" type="matrix" values="0 0 0 0 0 0 0 0 0 0 0 0 0 0 0 0 0 0 127 0" result="hardAlpha"/>
<feOffset dx="1" dy="2"/>
<feGaussianBlur stdDeviation="1.3"/>
<feComposite in2="hardAlpha" operator="out"/>
<feColorMatrix type="matrix" values="0 0 0 0 0 0 0 0 0 0 0 0 0 0 0 0 0 0 0.2 0"/>
<feBlend mode="normal" in2="BackgroundImageFix" result="effect1_dropShadow_329_3648"/>
<feBlend mode="normal" in="SourceGraphic" in2="effect1_dropShadow_329_3648" result="shape"/>
</filter>
<linearGradient id="paint0_linear_329_3648" x1="4.23684" y1="3.02632" x2="69" y2="69" gradientUnits="userSpaceOnUse">
<stop stop-color="white" style="stop-color:white;stop-opacity:1;"/>
<stop offset="1" stop-color="#E48921" stop-opacity="0" style="stop-color:none;stop-opacity:0;"/>
</linearGradient>
<linearGradient id="paint1_linear_329_3648" x1="0" y1="0" x2="69" y2="69" gradientUnits="userSpaceOnUse">
<stop stop-color="white" style="stop-color:white;stop-opacity:1;"/>
<stop offset="1" stop-color="#777777" style="stop-color:#777777;stop-color:color(display-p3 0.4663 0.4663 0.4663);stop-opacity:1;"/>
</linearGradient>
<linearGradient id="paint2_linear_329_3648" x1="9.5" y1="8.5" x2="63" y2="63" gradientUnits="userSpaceOnUse">
<stop stop-color="white" style="stop-color:white;stop-opacity:1;"/>
<stop offset="1" stop-color="#E48921" stop-opacity="0" style="stop-color:none;stop-opacity:0;"/>
</linearGradient>
</defs>
</svg>
